<?xml version="1.0" encoding="utf-8" standalone="no"?>
<!DOCTYPE svg PUBLIC "-//W3C//DTD SVG 1.1//EN"
  "http://www.w3.org/Graphics/SVG/1.1/DTD/svg11.dtd">
<svg height="288.628304pt" version="1.1" viewBox="0 0 480.812484 288.628304" width="480.812484pt" xmlns="http://www.w3.org/2000/svg" xmlns:xlink="http://www.w3.org/1999/xlink">
 <metadata>
  <rdf:RDF xmlns:cc="http://creativecommons.org/ns#" xmlns:dc="http://purl.org/dc/elements/1.1/" xmlns:rdf="http://www.w3.org/1999/02/22-rdf-syntax-ns#">
   <cc:Work>
    <dc:type rdf:resource="http://purl.org/dc/dcmitype/StillImage"/>
    <dc:date>2023-03-28T13:48:22.686548</dc:date>
    <dc:format>image/svg+xml</dc:format>
    <dc:creator>
     <cc:Agent>
      <dc:title>Matplotlib v3.4.3, https://matplotlib.org/</dc:title>
     </cc:Agent>
    </dc:creator>
   </cc:Work>
  </rdf:RDF>
 </metadata>
 <defs>
  <style type="text/css">*{stroke-linecap:butt;stroke-linejoin:round;}</style>
 </defs>
 <g id="figure_1">
  <g id="patch_1">
   <path d="M 0 288.628304 
L 480.812484 288.628304 
L 480.812484 0 
L 0 0 
z
" style="fill:none;"/>
  </g>
  <g id="axes_1">
   <g id="patch_2">
    <path clip-path="url(#p8ad65093e2)" d="M 301.497684 250.828304 
C 305.555292 250.828304 309.447256 249.216199 312.316418 246.347037 
C 315.18558 243.477876 316.797684 239.585911 316.797684 235.528304 
C 316.797684 231.470696 315.18558 227.578732 312.316418 224.70957 
C 309.447256 221.840408 305.555292 220.228304 301.497684 220.228304 
C 297.440077 220.228304 293.548112 221.840408 290.678951 224.70957 
C 287.809789 227.578732 286.197684 231.470696 286.197684 235.528304 
C 286.197684 239.585911 287.809789 243.477876 290.678951 246.347037 
C 293.548112 249.216199 297.440077 250.828304 301.497684 250.828304 
z
" style="fill:none;stroke:#bbbbbb;stroke-linejoin:miter;stroke-width:2;"/>
   </g>
   <g id="patch_3">
    <path clip-path="url(#p8ad65093e2)" d="M 347.397684 250.828304 
C 351.455292 250.828304 355.347256 249.216199 358.216418 246.347037 
C 361.08558 243.477876 362.697684 239.585911 362.697684 235.528304 
C 362.697684 231.470696 361.08558 227.578732 358.216418 224.70957 
C 355.347256 221.840408 351.455292 220.228304 347.397684 220.228304 
C 343.340077 220.228304 339.448112 221.840408 336.578951 224.70957 
C 333.709789 227.578732 332.097684 231.470696 332.097684 235.528304 
C 332.097684 239.585911 333.709789 243.477876 336.578951 246.347037 
C 339.448112 249.216199 343.340077 250.828304 347.397684 250.828304 
z
" style="fill:none;stroke:#bbbbbb;stroke-linejoin:miter;stroke-width:2;"/>
   </g>
   <g id="patch_4">
    <path clip-path="url(#p8ad65093e2)" d="M 393.297684 250.828304 
C 397.355292 250.828304 401.247256 249.216199 404.116418 246.347037 
C 406.98558 243.477876 408.597684 239.585911 408.597684 235.528304 
C 408.597684 231.470696 406.98558 227.578732 404.116418 224.70957 
C 401.247256 221.840408 397.355292 220.228304 393.297684 220.228304 
C 389.240077 220.228304 385.348112 221.840408 382.478951 224.70957 
C 379.609789 227.578732 377.997684 231.470696 377.997684 235.528304 
C 377.997684 239.585911 379.609789 243.477876 382.478951 246.347037 
C 385.348112 249.216199 389.240077 250.828304 393.297684 250.828304 
z
" style="fill:none;stroke:#bbbbbb;stroke-linejoin:miter;stroke-width:2;"/>
   </g>
   <g id="patch_5">
    <path clip-path="url(#p8ad65093e2)" d="M 83.1492 83.36 
C 87.206807 83.36 91.098772 81.747895 93.967934 78.878734 
C 96.837095 76.009572 98.4492 72.117607 98.4492 68.06 
C 98.4492 64.002393 96.837095 60.110428 93.967934 57.241266 
C 91.098772 54.372105 87.206807 52.76 83.1492 52.76 
C 79.091593 52.76 75.199628 54.372105 72.330466 57.241266 
C 69.461305 60.110428 67.8492 64.002393 67.8492 68.06 
C 67.8492 72.117607 69.461305 76.009572 72.330466 78.878734 
C 75.199628 81.747895 79.091593 83.36 83.1492 83.36 
z
" style="fill:none;stroke:#bbbbbb;stroke-linejoin:miter;stroke-width:2;"/>
   </g>
   <g id="patch_6">
    <path clip-path="url(#p8ad65093e2)" d="M 301.497684 250.828304 
C 305.555292 250.828304 309.447256 249.216199 312.316418 246.347037 
C 315.18558 243.477876 316.797684 239.585911 316.797684 235.528304 
C 316.797684 231.470696 315.18558 227.578732 312.316418 224.70957 
C 309.447256 221.840408 305.555292 220.228304 301.497684 220.228304 
C 297.440077 220.228304 293.548112 221.840408 290.678951 224.70957 
C 287.809789 227.578732 286.197684 231.470696 286.197684 235.528304 
C 286.197684 239.585911 287.809789 243.477876 290.678951 246.347037 
C 293.548112 249.216199 297.440077 250.828304 301.497684 250.828304 
z
" style="fill:none;stroke:#bbbbbb;stroke-linejoin:miter;stroke-width:2;"/>
   </g>
   <g id="patch_7">
    <path clip-path="url(#p8ad65093e2)" d="M 347.397684 250.828304 
C 351.455292 250.828304 355.347256 249.216199 358.216418 246.347037 
C 361.08558 243.477876 362.697684 239.585911 362.697684 235.528304 
C 362.697684 231.470696 361.08558 227.578732 358.216418 224.70957 
C 355.347256 221.840408 351.455292 220.228304 347.397684 220.228304 
C 343.340077 220.228304 339.448112 221.840408 336.578951 224.70957 
C 333.709789 227.578732 332.097684 231.470696 332.097684 235.528304 
C 332.097684 239.585911 333.709789 243.477876 336.578951 246.347037 
C 339.448112 249.216199 343.340077 250.828304 347.397684 250.828304 
z
" style="fill:none;stroke:#bbbbbb;stroke-linejoin:miter;stroke-width:2;"/>
   </g>
   <g id="patch_8">
    <path clip-path="url(#p8ad65093e2)" d="M 393.297684 250.828304 
C 397.355292 250.828304 401.247256 249.216199 404.116418 246.347037 
C 406.98558 243.477876 408.597684 239.585911 408.597684 235.528304 
C 408.597684 231.470696 406.98558 227.578732 404.116418 224.70957 
C 401.247256 221.840408 397.355292 220.228304 393.297684 220.228304 
C 389.240077 220.228304 385.348112 221.840408 382.478951 224.70957 
C 379.609789 227.578732 377.997684 231.470696 377.997684 235.528304 
C 377.997684 239.585911 379.609789 243.477876 382.478951 246.347037 
C 385.348112 249.216199 389.240077 250.828304 393.297684 250.828304 
z
" style="fill:none;stroke:#bbbbbb;stroke-linejoin:miter;stroke-width:2;"/>
   </g>
   <g id="patch_9">
    <path clip-path="url(#p8ad65093e2)" d="M 83.1492 83.36 
C 87.206807 83.36 91.098772 81.747895 93.967934 78.878734 
C 96.837095 76.009572 98.4492 72.117607 98.4492 68.06 
C 98.4492 64.002393 96.837095 60.110428 93.967934 57.241266 
C 91.098772 54.372105 87.206807 52.76 83.1492 52.76 
C 79.091593 52.76 75.199628 54.372105 72.330466 57.241266 
C 69.461305 60.110428 67.8492 64.002393 67.8492 68.06 
C 67.8492 72.117607 69.461305 76.009572 72.330466 78.878734 
C 75.199628 81.747895 79.091593 83.36 83.1492 83.36 
z
" style="fill:none;stroke:#bbbbbb;stroke-linejoin:miter;stroke-width:2;"/>
   </g>
   <g id="patch_10">
    <path clip-path="url(#p8ad65093e2)" d="M 462.147684 276.073304 
C 462.756326 276.073304 463.34012 275.831488 463.770495 275.401114 
C 464.200869 274.970739 464.442684 274.386945 464.442684 273.778304 
C 464.442684 273.169662 464.200869 272.585868 463.770495 272.155493 
C 463.34012 271.725119 462.756326 271.483304 462.147684 271.483304 
C 461.539043 271.483304 460.955249 271.725119 460.524874 272.155493 
C 460.0945 272.585868 459.852684 273.169662 459.852684 273.778304 
C 459.852684 274.386945 460.0945 274.970739 460.524874 275.401114 
C 460.955249 275.831488 461.539043 276.073304 462.147684 276.073304 
z
" style="fill:#f0ffff;stroke:#f0ffff;stroke-linejoin:miter;stroke-width:2;"/>
   </g>
   <g id="patch_11">
    <path clip-path="url(#p8ad65093e2)" d="M 462.147684 276.073304 
C 462.756326 276.073304 463.34012 275.831488 463.770495 275.401114 
C 464.200869 274.970739 464.442684 274.386945 464.442684 273.778304 
C 464.442684 273.169662 464.200869 272.585868 463.770495 272.155493 
C 463.34012 271.725119 462.756326 271.483304 462.147684 271.483304 
C 461.539043 271.483304 460.955249 271.725119 460.524874 272.155493 
C 460.0945 272.585868 459.852684 273.169662 459.852684 273.778304 
C 459.852684 274.386945 460.0945 274.970739 460.524874 275.401114 
C 460.955249 275.831488 461.539043 276.073304 462.147684 276.073304 
z
" style="fill:#f0ffff;stroke:#f0ffff;stroke-linejoin:miter;stroke-width:2;"/>
   </g>
   <g id="line2d_1">
    <path clip-path="url(#p8ad65093e2)" d="M 117.897684 273.778304 
L 129.372684 273.778304 
L 140.847684 273.778304 
" style="fill:none;stroke:#f0ffff;stroke-linecap:round;stroke-width:2;"/>
   </g>
   <g id="line2d_2">
    <path clip-path="url(#p8ad65093e2)" d="M 140.847684 273.778304 
L 152.322684 273.778304 
L 163.797684 273.778304 
" style="fill:none;stroke:#f0ffff;stroke-linecap:round;stroke-width:2;"/>
   </g>
   <g id="line2d_3">
    <path clip-path="url(#p8ad65093e2)" d="M 163.797684 273.778304 
L 175.272684 273.778304 
L 186.747684 273.778304 
" style="fill:none;stroke:#f0ffff;stroke-linecap:round;stroke-width:2;"/>
   </g>
   <g id="line2d_4">
    <path clip-path="url(#p8ad65093e2)" d="M 186.747684 273.778304 
L 198.222684 273.778304 
L 209.697684 273.778304 
" style="fill:none;stroke:#f0ffff;stroke-linecap:round;stroke-width:2;"/>
   </g>
   <g id="line2d_5">
    <path clip-path="url(#p8ad65093e2)" d="M 209.697684 273.778304 
L 221.172684 273.778304 
L 232.647684 273.778304 
" style="fill:none;stroke:#f0ffff;stroke-linecap:round;stroke-width:2;"/>
   </g>
   <g id="line2d_6">
    <path clip-path="url(#p8ad65093e2)" d="M 232.647684 273.778304 
L 244.122684 273.778304 
L 255.597684 273.778304 
" style="fill:none;stroke:#f0ffff;stroke-linecap:round;stroke-width:2;"/>
   </g>
   <g id="line2d_7">
    <path clip-path="url(#p8ad65093e2)" d="M 255.597684 273.778304 
L 278.547684 273.778304 
L 301.497684 273.778304 
" style="fill:none;stroke:#f0ffff;stroke-linecap:round;stroke-width:2;"/>
   </g>
   <g id="line2d_8">
    <path clip-path="url(#p8ad65093e2)" d="M 301.497684 273.778304 
L 301.497684 250.828304 
" style="fill:none;stroke:#bbbbbb;stroke-linecap:round;stroke-width:2;"/>
   </g>
   <g id="line2d_9">
    <path clip-path="url(#p8ad65093e2)" d="M 309.147684 235.528304 
L 308.510184 233.944331 
L 307.872684 232.468304 
L 307.235184 231.20081 
L 306.597684 230.228228 
L 305.960184 229.616837 
L 305.322684 229.408304 
L 304.685184 229.616837 
L 304.047684 230.228228 
L 303.410184 231.20081 
L 302.772684 232.468304 
L 302.135184 233.944331 
L 301.497684 235.528304 
L 300.860184 237.112276 
L 300.222684 238.588304 
L 299.585184 239.855797 
L 298.947684 240.828379 
L 298.310184 241.43977 
L 297.672684 241.648304 
L 297.035184 241.43977 
L 296.397684 240.828379 
L 295.760184 239.855797 
L 295.122684 238.588304 
L 294.485184 237.112276 
L 293.847684 235.528304 
" style="fill:none;stroke:#bbbbbb;stroke-linecap:round;stroke-width:2;"/>
   </g>
   <g id="line2d_10">
    <path clip-path="url(#p8ad65093e2)" d="M 301.497684 273.778304 
L 324.447684 273.778304 
L 347.397684 273.778304 
" style="fill:none;stroke:#f0ffff;stroke-linecap:round;stroke-width:2;"/>
   </g>
   <g id="line2d_11">
    <path clip-path="url(#p8ad65093e2)" d="M 347.397684 273.778304 
L 347.397684 250.828304 
" style="fill:none;stroke:#bbbbbb;stroke-linecap:round;stroke-width:2;"/>
   </g>
   <g id="line2d_12">
    <path clip-path="url(#p8ad65093e2)" d="M 355.047684 235.528304 
L 354.410184 233.944331 
L 353.772684 232.468304 
L 353.135184 231.20081 
L 352.497684 230.228228 
L 351.860184 229.616837 
L 351.222684 229.408304 
L 350.585184 229.616837 
L 349.947684 230.228228 
L 349.310184 231.20081 
L 348.672684 232.468304 
L 348.035184 233.944331 
L 347.397684 235.528304 
L 346.760184 237.112276 
L 346.122684 238.588304 
L 345.485184 239.855797 
L 344.847684 240.828379 
L 344.210184 241.43977 
L 343.572684 241.648304 
L 342.935184 241.43977 
L 342.297684 240.828379 
L 341.660184 239.855797 
L 341.022684 238.588304 
L 340.385184 237.112276 
L 339.747684 235.528304 
" style="fill:none;stroke:#bbbbbb;stroke-linecap:round;stroke-width:2;"/>
   </g>
   <g id="line2d_13">
    <path clip-path="url(#p8ad65093e2)" d="M 347.397684 273.778304 
L 370.347684 273.778304 
L 393.297684 273.778304 
" style="fill:none;stroke:#f0ffff;stroke-linecap:round;stroke-width:2;"/>
   </g>
   <g id="line2d_14">
    <path clip-path="url(#p8ad65093e2)" d="M 393.297684 273.778304 
L 393.297684 250.828304 
" style="fill:none;stroke:#bbbbbb;stroke-linecap:round;stroke-width:2;"/>
   </g>
   <g id="line2d_15">
    <path clip-path="url(#p8ad65093e2)" d="M 400.947684 235.528304 
L 400.310184 233.944331 
L 399.672684 232.468304 
L 399.035184 231.20081 
L 398.397684 230.228228 
L 397.760184 229.616837 
L 397.122684 229.408304 
L 396.485184 229.616837 
L 395.847684 230.228228 
L 395.210184 231.20081 
L 394.572684 232.468304 
L 393.935184 233.944331 
L 393.297684 235.528304 
L 392.660184 237.112276 
L 392.022684 238.588304 
L 391.385184 239.855797 
L 390.747684 240.828379 
L 390.110184 241.43977 
L 389.472684 241.648304 
L 388.835184 241.43977 
L 388.197684 240.828379 
L 387.560184 239.855797 
L 386.922684 238.588304 
L 386.285184 237.112276 
L 385.647684 235.528304 
" style="fill:none;stroke:#bbbbbb;stroke-linecap:round;stroke-width:2;"/>
   </g>
   <g id="line2d_16">
    <path clip-path="url(#p8ad65093e2)" d="M 393.297684 273.778304 
L 416.247684 273.778304 
L 439.197684 273.778304 
" style="fill:none;stroke:#f0ffff;stroke-linecap:round;stroke-width:2;"/>
   </g>
   <g id="line2d_17">
    <path clip-path="url(#p8ad65093e2)" d="M 439.197684 273.778304 
L 439.197684 250.828304 
L 423.897684 250.828304 
L 423.897684 220.228304 
L 454.497684 220.228304 
L 454.497684 250.828304 
L 439.197684 250.828304 
" style="fill:none;stroke:#bbbbbb;stroke-linecap:round;stroke-width:2;"/>
   </g>
   <g id="line2d_18">
    <path clip-path="url(#p8ad65093e2)" d="M 439.197684 273.778304 
L 450.672684 273.778304 
L 462.147684 273.778304 
" style="fill:none;stroke:#f0ffff;stroke-linecap:round;stroke-width:2;"/>
   </g>
   <g id="line2d_19">
    <path clip-path="url(#p8ad65093e2)" d="M 37.2492 106.31 
L 60.1992 106.31 
L 83.1492 106.31 
" style="fill:none;stroke:#f0ffff;stroke-linecap:round;stroke-width:2;"/>
   </g>
   <g id="line2d_20">
    <path clip-path="url(#p8ad65093e2)" d="M 83.1492 106.31 
L 83.1492 83.36 
" style="fill:none;stroke:#bbbbbb;stroke-linecap:round;stroke-width:2;"/>
   </g>
   <g id="line2d_21">
    <path clip-path="url(#p8ad65093e2)" d="M 90.7992 68.06 
L 90.1617 66.476027 
L 89.5242 65 
L 88.8867 63.732506 
L 88.2492 62.759925 
L 87.6117 62.148534 
L 86.9742 61.94 
L 86.3367 62.148534 
L 85.6992 62.759925 
L 85.0617 63.732506 
L 84.4242 65 
L 83.7867 66.476027 
L 83.1492 68.06 
L 82.5117 69.643973 
L 81.8742 71.12 
L 81.2367 72.387494 
L 80.5992 73.360075 
L 79.9617 73.971466 
L 79.3242 74.18 
L 78.6867 73.971466 
L 78.0492 73.360075 
L 77.4117 72.387494 
L 76.7742 71.12 
L 76.1367 69.643973 
L 75.4992 68.06 
" style="fill:none;stroke:#bbbbbb;stroke-linecap:round;stroke-width:2;"/>
   </g>
   <g id="line2d_22">
    <path clip-path="url(#p8ad65093e2)" d="M 83.1492 106.31 
L 106.0992 106.31 
L 129.0492 106.31 
" style="fill:none;stroke:#f0ffff;stroke-linecap:round;stroke-width:2;"/>
   </g>
   <g id="line2d_23">
    <path clip-path="url(#p8ad65093e2)" d="M 117.897684 273.778304 
L 129.372684 273.778304 
L 140.847684 273.778304 
" style="fill:none;stroke:#f0ffff;stroke-linecap:round;stroke-width:2;"/>
   </g>
   <g id="line2d_24">
    <path clip-path="url(#p8ad65093e2)" d="M 140.847684 273.778304 
L 152.322684 273.778304 
L 163.797684 273.778304 
" style="fill:none;stroke:#f0ffff;stroke-linecap:round;stroke-width:2;"/>
   </g>
   <g id="line2d_25">
    <path clip-path="url(#p8ad65093e2)" d="M 163.797684 273.778304 
L 175.272684 273.778304 
L 186.747684 273.778304 
" style="fill:none;stroke:#f0ffff;stroke-linecap:round;stroke-width:2;"/>
   </g>
   <g id="line2d_26">
    <path clip-path="url(#p8ad65093e2)" d="M 186.747684 273.778304 
L 198.222684 273.778304 
L 209.697684 273.778304 
" style="fill:none;stroke:#f0ffff;stroke-linecap:round;stroke-width:2;"/>
   </g>
   <g id="line2d_27">
    <path clip-path="url(#p8ad65093e2)" d="M 209.697684 273.778304 
L 221.172684 273.778304 
L 232.647684 273.778304 
" style="fill:none;stroke:#f0ffff;stroke-linecap:round;stroke-width:2;"/>
   </g>
   <g id="line2d_28">
    <path clip-path="url(#p8ad65093e2)" d="M 232.647684 273.778304 
L 244.122684 273.778304 
L 255.597684 273.778304 
" style="fill:none;stroke:#f0ffff;stroke-linecap:round;stroke-width:2;"/>
   </g>
   <g id="line2d_29">
    <path clip-path="url(#p8ad65093e2)" d="M 255.597684 273.778304 
L 278.547684 273.778304 
L 301.497684 273.778304 
" style="fill:none;stroke:#f0ffff;stroke-linecap:round;stroke-width:2;"/>
   </g>
   <g id="line2d_30">
    <path clip-path="url(#p8ad65093e2)" d="M 301.497684 273.778304 
L 301.497684 250.828304 
" style="fill:none;stroke:#bbbbbb;stroke-linecap:round;stroke-width:2;"/>
   </g>
   <g id="line2d_31">
    <path clip-path="url(#p8ad65093e2)" d="M 309.147684 235.528304 
L 308.510184 233.944331 
L 307.872684 232.468304 
L 307.235184 231.20081 
L 306.597684 230.228228 
L 305.960184 229.616837 
L 305.322684 229.408304 
L 304.685184 229.616837 
L 304.047684 230.228228 
L 303.410184 231.20081 
L 302.772684 232.468304 
L 302.135184 233.944331 
L 301.497684 235.528304 
L 300.860184 237.112276 
L 300.222684 238.588304 
L 299.585184 239.855797 
L 298.947684 240.828379 
L 298.310184 241.43977 
L 297.672684 241.648304 
L 297.035184 241.43977 
L 296.397684 240.828379 
L 295.760184 239.855797 
L 295.122684 238.588304 
L 294.485184 237.112276 
L 293.847684 235.528304 
" style="fill:none;stroke:#bbbbbb;stroke-linecap:round;stroke-width:2;"/>
   </g>
   <g id="line2d_32">
    <path clip-path="url(#p8ad65093e2)" d="M 301.497684 273.778304 
L 324.447684 273.778304 
L 347.397684 273.778304 
" style="fill:none;stroke:#f0ffff;stroke-linecap:round;stroke-width:2;"/>
   </g>
   <g id="line2d_33">
    <path clip-path="url(#p8ad65093e2)" d="M 347.397684 273.778304 
L 347.397684 250.828304 
" style="fill:none;stroke:#bbbbbb;stroke-linecap:round;stroke-width:2;"/>
   </g>
   <g id="line2d_34">
    <path clip-path="url(#p8ad65093e2)" d="M 355.047684 235.528304 
L 354.410184 233.944331 
L 353.772684 232.468304 
L 353.135184 231.20081 
L 352.497684 230.228228 
L 351.860184 229.616837 
L 351.222684 229.408304 
L 350.585184 229.616837 
L 349.947684 230.228228 
L 349.310184 231.20081 
L 348.672684 232.468304 
L 348.035184 233.944331 
L 347.397684 235.528304 
L 346.760184 237.112276 
L 346.122684 238.588304 
L 345.485184 239.855797 
L 344.847684 240.828379 
L 344.210184 241.43977 
L 343.572684 241.648304 
L 342.935184 241.43977 
L 342.297684 240.828379 
L 341.660184 239.855797 
L 341.022684 238.588304 
L 340.385184 237.112276 
L 339.747684 235.528304 
" style="fill:none;stroke:#bbbbbb;stroke-linecap:round;stroke-width:2;"/>
   </g>
   <g id="line2d_35">
    <path clip-path="url(#p8ad65093e2)" d="M 347.397684 273.778304 
L 370.347684 273.778304 
L 393.297684 273.778304 
" style="fill:none;stroke:#f0ffff;stroke-linecap:round;stroke-width:2;"/>
   </g>
   <g id="line2d_36">
    <path clip-path="url(#p8ad65093e2)" d="M 393.297684 273.778304 
L 393.297684 250.828304 
" style="fill:none;stroke:#bbbbbb;stroke-linecap:round;stroke-width:2;"/>
   </g>
   <g id="line2d_37">
    <path clip-path="url(#p8ad65093e2)" d="M 400.947684 235.528304 
L 400.310184 233.944331 
L 399.672684 232.468304 
L 399.035184 231.20081 
L 398.397684 230.228228 
L 397.760184 229.616837 
L 397.122684 229.408304 
L 396.485184 229.616837 
L 395.847684 230.228228 
L 395.210184 231.20081 
L 394.572684 232.468304 
L 393.935184 233.944331 
L 393.297684 235.528304 
L 392.660184 237.112276 
L 392.022684 238.588304 
L 391.385184 239.855797 
L 390.747684 240.828379 
L 390.110184 241.43977 
L 389.472684 241.648304 
L 388.835184 241.43977 
L 388.197684 240.828379 
L 387.560184 239.855797 
L 386.922684 238.588304 
L 386.285184 237.112276 
L 385.647684 235.528304 
" style="fill:none;stroke:#bbbbbb;stroke-linecap:round;stroke-width:2;"/>
   </g>
   <g id="line2d_38">
    <path clip-path="url(#p8ad65093e2)" d="M 393.297684 273.778304 
L 416.247684 273.778304 
L 439.197684 273.778304 
" style="fill:none;stroke:#f0ffff;stroke-linecap:round;stroke-width:2;"/>
   </g>
   <g id="line2d_39">
    <path clip-path="url(#p8ad65093e2)" d="M 439.197684 273.778304 
L 439.197684 250.828304 
L 423.897684 250.828304 
L 423.897684 220.228304 
L 454.497684 220.228304 
L 454.497684 250.828304 
L 439.197684 250.828304 
" style="fill:none;stroke:#bbbbbb;stroke-linecap:round;stroke-width:2;"/>
   </g>
   <g id="line2d_40">
    <path clip-path="url(#p8ad65093e2)" d="M 439.197684 273.778304 
L 450.672684 273.778304 
L 462.147684 273.778304 
" style="fill:none;stroke:#f0ffff;stroke-linecap:round;stroke-width:2;"/>
   </g>
   <g id="line2d_41">
    <path clip-path="url(#p8ad65093e2)" d="M 37.2492 106.31 
L 60.1992 106.31 
L 83.1492 106.31 
" style="fill:none;stroke:#f0ffff;stroke-linecap:round;stroke-width:2;"/>
   </g>
   <g id="line2d_42">
    <path clip-path="url(#p8ad65093e2)" d="M 83.1492 106.31 
L 83.1492 83.36 
" style="fill:none;stroke:#bbbbbb;stroke-linecap:round;stroke-width:2;"/>
   </g>
   <g id="line2d_43">
    <path clip-path="url(#p8ad65093e2)" d="M 90.7992 68.06 
L 90.1617 66.476027 
L 89.5242 65 
L 88.8867 63.732506 
L 88.2492 62.759925 
L 87.6117 62.148534 
L 86.9742 61.94 
L 86.3367 62.148534 
L 85.6992 62.759925 
L 85.0617 63.732506 
L 84.4242 65 
L 83.7867 66.476027 
L 83.1492 68.06 
L 82.5117 69.643973 
L 81.8742 71.12 
L 81.2367 72.387494 
L 80.5992 73.360075 
L 79.9617 73.971466 
L 79.3242 74.18 
L 78.6867 73.971466 
L 78.0492 73.360075 
L 77.4117 72.387494 
L 76.7742 71.12 
L 76.1367 69.643973 
L 75.4992 68.06 
" style="fill:none;stroke:#bbbbbb;stroke-linecap:round;stroke-width:2;"/>
   </g>
   <g id="line2d_44">
    <path clip-path="url(#p8ad65093e2)" d="M 83.1492 106.31 
L 106.0992 106.31 
L 129.0492 106.31 
" style="fill:none;stroke:#f0ffff;stroke-linecap:round;stroke-width:2;"/>
   </g>
   <g id="text_1">
    <g clip-path="url(#p8ad65093e2)">
     <!-- Wind -->
     <g style="fill:#bbbbbb;" transform="translate(293.331552 201.25935)scale(0.065 -0.065)">
      <defs>
       <path d="M 213 4666 
L 850 4666 
L 1831 722 
L 2809 4666 
L 3519 4666 
L 4500 722 
L 5478 4666 
L 6119 4666 
L 4947 0 
L 4153 0 
L 3169 4050 
L 2175 0 
L 1381 0 
L 213 4666 
z
" id="DejaVuSans-57" transform="scale(0.015625)"/>
       <path d="M 603 3500 
L 1178 3500 
L 1178 0 
L 603 0 
L 603 3500 
z
M 603 4863 
L 1178 4863 
L 1178 4134 
L 603 4134 
L 603 4863 
z
" id="DejaVuSans-69" transform="scale(0.015625)"/>
       <path d="M 3513 2113 
L 3513 0 
L 2938 0 
L 2938 2094 
Q 2938 2591 2744 2837 
Q 2550 3084 2163 3084 
Q 1697 3084 1428 2787 
Q 1159 2491 1159 1978 
L 1159 0 
L 581 0 
L 581 3500 
L 1159 3500 
L 1159 2956 
Q 1366 3272 1645 3428 
Q 1925 3584 2291 3584 
Q 2894 3584 3203 3211 
Q 3513 2838 3513 2113 
z
" id="DejaVuSans-6e" transform="scale(0.015625)"/>
       <path d="M 2906 2969 
L 2906 4863 
L 3481 4863 
L 3481 0 
L 2906 0 
L 2906 525 
Q 2725 213 2448 61 
Q 2172 -91 1784 -91 
Q 1150 -91 751 415 
Q 353 922 353 1747 
Q 353 2572 751 3078 
Q 1150 3584 1784 3584 
Q 2172 3584 2448 3432 
Q 2725 3281 2906 2969 
z
M 947 1747 
Q 947 1113 1208 752 
Q 1469 391 1925 391 
Q 2381 391 2643 752 
Q 2906 1113 2906 1747 
Q 2906 2381 2643 2742 
Q 2381 3103 1925 3103 
Q 1469 3103 1208 2742 
Q 947 2381 947 1747 
z
" id="DejaVuSans-64" transform="scale(0.015625)"/>
      </defs>
      <use xlink:href="#DejaVuSans-57"/>
      <use x="96.626953" xlink:href="#DejaVuSans-69"/>
      <use x="124.410156" xlink:href="#DejaVuSans-6e"/>
      <use x="187.789062" xlink:href="#DejaVuSans-64"/>
     </g>
    </g>
    <g clip-path="url(#p8ad65093e2)">
     <!--   -->
     <g style="fill:#bbbbbb;" transform="translate(300.464794 208.537929)scale(0.065 -0.065)">
      <defs>
       <path id="DejaVuSans-20" transform="scale(0.015625)"/>
      </defs>
      <use xlink:href="#DejaVuSans-20"/>
     </g>
    </g>
    <g clip-path="url(#p8ad65093e2)">
     <!--  p: 0.0 -->
     <g style="fill:#bbbbbb;" transform="translate(291.105302 215.816507)scale(0.065 -0.065)">
      <defs>
       <path d="M 1159 525 
L 1159 -1331 
L 581 -1331 
L 581 3500 
L 1159 3500 
L 1159 2969 
Q 1341 3281 1617 3432 
Q 1894 3584 2278 3584 
Q 2916 3584 3314 3078 
Q 3713 2572 3713 1747 
Q 3713 922 3314 415 
Q 2916 -91 2278 -91 
Q 1894 -91 1617 61 
Q 1341 213 1159 525 
z
M 3116 1747 
Q 3116 2381 2855 2742 
Q 2594 3103 2138 3103 
Q 1681 3103 1420 2742 
Q 1159 2381 1159 1747 
Q 1159 1113 1420 752 
Q 1681 391 2138 391 
Q 2594 391 2855 752 
Q 3116 1113 3116 1747 
z
" id="DejaVuSans-70" transform="scale(0.015625)"/>
       <path d="M 750 794 
L 1409 794 
L 1409 0 
L 750 0 
L 750 794 
z
M 750 3309 
L 1409 3309 
L 1409 2516 
L 750 2516 
L 750 3309 
z
" id="DejaVuSans-3a" transform="scale(0.015625)"/>
       <path d="M 2034 4250 
Q 1547 4250 1301 3770 
Q 1056 3291 1056 2328 
Q 1056 1369 1301 889 
Q 1547 409 2034 409 
Q 2525 409 2770 889 
Q 3016 1369 3016 2328 
Q 3016 3291 2770 3770 
Q 2525 4250 2034 4250 
z
M 2034 4750 
Q 2819 4750 3233 4129 
Q 3647 3509 3647 2328 
Q 3647 1150 3233 529 
Q 2819 -91 2034 -91 
Q 1250 -91 836 529 
Q 422 1150 422 2328 
Q 422 3509 836 4129 
Q 1250 4750 2034 4750 
z
" id="DejaVuSans-30" transform="scale(0.015625)"/>
       <path d="M 684 794 
L 1344 794 
L 1344 0 
L 684 0 
L 684 794 
z
" id="DejaVuSans-2e" transform="scale(0.015625)"/>
      </defs>
      <use xlink:href="#DejaVuSans-20"/>
      <use x="31.787109" xlink:href="#DejaVuSans-70"/>
      <use x="95.263672" xlink:href="#DejaVuSans-3a"/>
      <use x="128.955078" xlink:href="#DejaVuSans-20"/>
      <use x="160.742188" xlink:href="#DejaVuSans-30"/>
      <use x="224.365234" xlink:href="#DejaVuSans-2e"/>
      <use x="256.152344" xlink:href="#DejaVuSans-30"/>
     </g>
    </g>
   </g>
   <g id="text_2">
    <g clip-path="url(#p8ad65093e2)">
     <!-- P2X -->
     <g style="fill:#bbbbbb;" transform="translate(341.143974 201.25935)scale(0.065 -0.065)">
      <defs>
       <path d="M 1259 4147 
L 1259 2394 
L 2053 2394 
Q 2494 2394 2734 2622 
Q 2975 2850 2975 3272 
Q 2975 3691 2734 3919 
Q 2494 4147 2053 4147 
L 1259 4147 
z
M 628 4666 
L 2053 4666 
Q 2838 4666 3239 4311 
Q 3641 3956 3641 3272 
Q 3641 2581 3239 2228 
Q 2838 1875 2053 1875 
L 1259 1875 
L 1259 0 
L 628 0 
L 628 4666 
z
" id="DejaVuSans-50" transform="scale(0.015625)"/>
       <path d="M 1228 531 
L 3431 531 
L 3431 0 
L 469 0 
L 469 531 
Q 828 903 1448 1529 
Q 2069 2156 2228 2338 
Q 2531 2678 2651 2914 
Q 2772 3150 2772 3378 
Q 2772 3750 2511 3984 
Q 2250 4219 1831 4219 
Q 1534 4219 1204 4116 
Q 875 4013 500 3803 
L 500 4441 
Q 881 4594 1212 4672 
Q 1544 4750 1819 4750 
Q 2544 4750 2975 4387 
Q 3406 4025 3406 3419 
Q 3406 3131 3298 2873 
Q 3191 2616 2906 2266 
Q 2828 2175 2409 1742 
Q 1991 1309 1228 531 
z
" id="DejaVuSans-32" transform="scale(0.015625)"/>
       <path d="M 403 4666 
L 1081 4666 
L 2241 2931 
L 3406 4666 
L 4084 4666 
L 2584 2425 
L 4184 0 
L 3506 0 
L 2194 1984 
L 872 0 
L 191 0 
L 1856 2491 
L 403 4666 
z
" id="DejaVuSans-58" transform="scale(0.015625)"/>
      </defs>
      <use xlink:href="#DejaVuSans-50"/>
      <use x="60.302734" xlink:href="#DejaVuSans-32"/>
      <use x="123.925781" xlink:href="#DejaVuSans-58"/>
     </g>
    </g>
    <g clip-path="url(#p8ad65093e2)">
     <!--   -->
     <g style="fill:#bbbbbb;" transform="translate(346.364794 208.537929)scale(0.065 -0.065)">
      <use xlink:href="#DejaVuSans-20"/>
     </g>
    </g>
    <g clip-path="url(#p8ad65093e2)">
     <!--  p: 0.0 -->
     <g style="fill:#bbbbbb;" transform="translate(337.005302 215.816507)scale(0.065 -0.065)">
      <use xlink:href="#DejaVuSans-20"/>
      <use x="31.787109" xlink:href="#DejaVuSans-70"/>
      <use x="95.263672" xlink:href="#DejaVuSans-3a"/>
      <use x="128.955078" xlink:href="#DejaVuSans-20"/>
      <use x="160.742188" xlink:href="#DejaVuSans-30"/>
      <use x="224.365234" xlink:href="#DejaVuSans-2e"/>
      <use x="256.152344" xlink:href="#DejaVuSans-30"/>
     </g>
    </g>
   </g>
   <g id="text_3">
    <g clip-path="url(#p8ad65093e2)">
     <!-- Data -->
     <g style="fill:#bbbbbb;" transform="translate(385.537802 201.25935)scale(0.065 -0.065)">
      <defs>
       <path d="M 1259 4147 
L 1259 519 
L 2022 519 
Q 2988 519 3436 956 
Q 3884 1394 3884 2338 
Q 3884 3275 3436 3711 
Q 2988 4147 2022 4147 
L 1259 4147 
z
M 628 4666 
L 1925 4666 
Q 3281 4666 3915 4102 
Q 4550 3538 4550 2338 
Q 4550 1131 3912 565 
Q 3275 0 1925 0 
L 628 0 
L 628 4666 
z
" id="DejaVuSans-44" transform="scale(0.015625)"/>
       <path d="M 2194 1759 
Q 1497 1759 1228 1600 
Q 959 1441 959 1056 
Q 959 750 1161 570 
Q 1363 391 1709 391 
Q 2188 391 2477 730 
Q 2766 1069 2766 1631 
L 2766 1759 
L 2194 1759 
z
M 3341 1997 
L 3341 0 
L 2766 0 
L 2766 531 
Q 2569 213 2275 61 
Q 1981 -91 1556 -91 
Q 1019 -91 701 211 
Q 384 513 384 1019 
Q 384 1609 779 1909 
Q 1175 2209 1959 2209 
L 2766 2209 
L 2766 2266 
Q 2766 2663 2505 2880 
Q 2244 3097 1772 3097 
Q 1472 3097 1187 3025 
Q 903 2953 641 2809 
L 641 3341 
Q 956 3463 1253 3523 
Q 1550 3584 1831 3584 
Q 2591 3584 2966 3190 
Q 3341 2797 3341 1997 
z
" id="DejaVuSans-61" transform="scale(0.015625)"/>
       <path d="M 1172 4494 
L 1172 3500 
L 2356 3500 
L 2356 3053 
L 1172 3053 
L 1172 1153 
Q 1172 725 1289 603 
Q 1406 481 1766 481 
L 2356 481 
L 2356 0 
L 1766 0 
Q 1100 0 847 248 
Q 594 497 594 1153 
L 594 3053 
L 172 3053 
L 172 3500 
L 594 3500 
L 594 4494 
L 1172 4494 
z
" id="DejaVuSans-74" transform="scale(0.015625)"/>
      </defs>
      <use xlink:href="#DejaVuSans-44"/>
      <use x="77.001953" xlink:href="#DejaVuSans-61"/>
      <use x="138.28125" xlink:href="#DejaVuSans-74"/>
      <use x="177.490234" xlink:href="#DejaVuSans-61"/>
     </g>
    </g>
    <g clip-path="url(#p8ad65093e2)">
     <!--   -->
     <g style="fill:#bbbbbb;" transform="translate(392.264794 208.537929)scale(0.065 -0.065)">
      <use xlink:href="#DejaVuSans-20"/>
     </g>
    </g>
    <g clip-path="url(#p8ad65093e2)">
     <!--  p: 0.0 -->
     <g style="fill:#bbbbbb;" transform="translate(382.905302 215.816507)scale(0.065 -0.065)">
      <use xlink:href="#DejaVuSans-20"/>
      <use x="31.787109" xlink:href="#DejaVuSans-70"/>
      <use x="95.263672" xlink:href="#DejaVuSans-3a"/>
      <use x="128.955078" xlink:href="#DejaVuSans-20"/>
      <use x="160.742188" xlink:href="#DejaVuSans-30"/>
      <use x="224.365234" xlink:href="#DejaVuSans-2e"/>
      <use x="256.152344" xlink:href="#DejaVuSans-30"/>
     </g>
    </g>
   </g>
   <g id="text_4">
    <g clip-path="url(#p8ad65093e2)">
     <!-- Island_store -->
     <g style="fill:#bbbbbb;" transform="translate(419.684989 201.078569)scale(0.065 -0.065)">
      <defs>
       <path d="M 628 4666 
L 1259 4666 
L 1259 0 
L 628 0 
L 628 4666 
z
" id="DejaVuSans-49" transform="scale(0.015625)"/>
       <path d="M 2834 3397 
L 2834 2853 
Q 2591 2978 2328 3040 
Q 2066 3103 1784 3103 
Q 1356 3103 1142 2972 
Q 928 2841 928 2578 
Q 928 2378 1081 2264 
Q 1234 2150 1697 2047 
L 1894 2003 
Q 2506 1872 2764 1633 
Q 3022 1394 3022 966 
Q 3022 478 2636 193 
Q 2250 -91 1575 -91 
Q 1294 -91 989 -36 
Q 684 19 347 128 
L 347 722 
Q 666 556 975 473 
Q 1284 391 1588 391 
Q 1994 391 2212 530 
Q 2431 669 2431 922 
Q 2431 1156 2273 1281 
Q 2116 1406 1581 1522 
L 1381 1569 
Q 847 1681 609 1914 
Q 372 2147 372 2553 
Q 372 3047 722 3315 
Q 1072 3584 1716 3584 
Q 2034 3584 2315 3537 
Q 2597 3491 2834 3397 
z
" id="DejaVuSans-73" transform="scale(0.015625)"/>
       <path d="M 603 4863 
L 1178 4863 
L 1178 0 
L 603 0 
L 603 4863 
z
" id="DejaVuSans-6c" transform="scale(0.015625)"/>
       <path d="M 3263 -1063 
L 3263 -1509 
L -63 -1509 
L -63 -1063 
L 3263 -1063 
z
" id="DejaVuSans-5f" transform="scale(0.015625)"/>
       <path d="M 1959 3097 
Q 1497 3097 1228 2736 
Q 959 2375 959 1747 
Q 959 1119 1226 758 
Q 1494 397 1959 397 
Q 2419 397 2687 759 
Q 2956 1122 2956 1747 
Q 2956 2369 2687 2733 
Q 2419 3097 1959 3097 
z
M 1959 3584 
Q 2709 3584 3137 3096 
Q 3566 2609 3566 1747 
Q 3566 888 3137 398 
Q 2709 -91 1959 -91 
Q 1206 -91 779 398 
Q 353 888 353 1747 
Q 353 2609 779 3096 
Q 1206 3584 1959 3584 
z
" id="DejaVuSans-6f" transform="scale(0.015625)"/>
       <path d="M 2631 2963 
Q 2534 3019 2420 3045 
Q 2306 3072 2169 3072 
Q 1681 3072 1420 2755 
Q 1159 2438 1159 1844 
L 1159 0 
L 581 0 
L 581 3500 
L 1159 3500 
L 1159 2956 
Q 1341 3275 1631 3429 
Q 1922 3584 2338 3584 
Q 2397 3584 2469 3576 
Q 2541 3569 2628 3553 
L 2631 2963 
z
" id="DejaVuSans-72" transform="scale(0.015625)"/>
       <path d="M 3597 1894 
L 3597 1613 
L 953 1613 
Q 991 1019 1311 708 
Q 1631 397 2203 397 
Q 2534 397 2845 478 
Q 3156 559 3463 722 
L 3463 178 
Q 3153 47 2828 -22 
Q 2503 -91 2169 -91 
Q 1331 -91 842 396 
Q 353 884 353 1716 
Q 353 2575 817 3079 
Q 1281 3584 2069 3584 
Q 2775 3584 3186 3129 
Q 3597 2675 3597 1894 
z
M 3022 2063 
Q 3016 2534 2758 2815 
Q 2500 3097 2075 3097 
Q 1594 3097 1305 2825 
Q 1016 2553 972 2059 
L 3022 2063 
z
" id="DejaVuSans-65" transform="scale(0.015625)"/>
      </defs>
      <use xlink:href="#DejaVuSans-49"/>
      <use x="29.492188" xlink:href="#DejaVuSans-73"/>
      <use x="81.591797" xlink:href="#DejaVuSans-6c"/>
      <use x="109.375" xlink:href="#DejaVuSans-61"/>
      <use x="170.654297" xlink:href="#DejaVuSans-6e"/>
      <use x="234.033203" xlink:href="#DejaVuSans-64"/>
      <use x="297.509766" xlink:href="#DejaVuSans-5f"/>
      <use x="347.509766" xlink:href="#DejaVuSans-73"/>
      <use x="399.609375" xlink:href="#DejaVuSans-74"/>
      <use x="438.818359" xlink:href="#DejaVuSans-6f"/>
      <use x="500" xlink:href="#DejaVuSans-72"/>
      <use x="538.863281" xlink:href="#DejaVuSans-65"/>
     </g>
    </g>
    <g clip-path="url(#p8ad65093e2)">
     <!--   -->
     <g style="fill:#bbbbbb;" transform="translate(438.164794 208.537929)scale(0.065 -0.065)">
      <use xlink:href="#DejaVuSans-20"/>
     </g>
    </g>
    <g clip-path="url(#p8ad65093e2)">
     <!--  e: 0.0 -->
     <g style="fill:#bbbbbb;" transform="translate(428.868778 215.816507)scale(0.065 -0.065)">
      <use xlink:href="#DejaVuSans-20"/>
      <use x="31.787109" xlink:href="#DejaVuSans-65"/>
      <use x="93.310547" xlink:href="#DejaVuSans-3a"/>
      <use x="127.001953" xlink:href="#DejaVuSans-20"/>
      <use x="158.789062" xlink:href="#DejaVuSans-30"/>
      <use x="222.412109" xlink:href="#DejaVuSans-2e"/>
      <use x="254.199219" xlink:href="#DejaVuSans-30"/>
     </g>
    </g>
   </g>
   <g id="text_5">
    <g clip-path="url(#p8ad65093e2)">
     <!-- Gen  -->
     <g style="fill:#bbbbbb;" transform="translate(75.538614 26.512469)scale(0.065 -0.065)">
      <defs>
       <path d="M 3809 666 
L 3809 1919 
L 2778 1919 
L 2778 2438 
L 4434 2438 
L 4434 434 
Q 4069 175 3628 42 
Q 3188 -91 2688 -91 
Q 1594 -91 976 548 
Q 359 1188 359 2328 
Q 359 3472 976 4111 
Q 1594 4750 2688 4750 
Q 3144 4750 3555 4637 
Q 3966 4525 4313 4306 
L 4313 3634 
Q 3963 3931 3569 4081 
Q 3175 4231 2741 4231 
Q 1884 4231 1454 3753 
Q 1025 3275 1025 2328 
Q 1025 1384 1454 906 
Q 1884 428 2741 428 
Q 3075 428 3337 486 
Q 3600 544 3809 666 
z
" id="DejaVuSans-47" transform="scale(0.015625)"/>
      </defs>
      <use xlink:href="#DejaVuSans-47"/>
      <use x="77.490234" xlink:href="#DejaVuSans-65"/>
      <use x="139.013672" xlink:href="#DejaVuSans-6e"/>
      <use x="202.392578" xlink:href="#DejaVuSans-20"/>
     </g>
    </g>
    <g clip-path="url(#p8ad65093e2)">
     <!-- Denmark -->
     <g style="fill:#bbbbbb;" transform="translate(68.211895 33.791047)scale(0.065 -0.065)">
      <defs>
       <path d="M 3328 2828 
Q 3544 3216 3844 3400 
Q 4144 3584 4550 3584 
Q 5097 3584 5394 3201 
Q 5691 2819 5691 2113 
L 5691 0 
L 5113 0 
L 5113 2094 
Q 5113 2597 4934 2840 
Q 4756 3084 4391 3084 
Q 3944 3084 3684 2787 
Q 3425 2491 3425 1978 
L 3425 0 
L 2847 0 
L 2847 2094 
Q 2847 2600 2669 2842 
Q 2491 3084 2119 3084 
Q 1678 3084 1418 2786 
Q 1159 2488 1159 1978 
L 1159 0 
L 581 0 
L 581 3500 
L 1159 3500 
L 1159 2956 
Q 1356 3278 1631 3431 
Q 1906 3584 2284 3584 
Q 2666 3584 2933 3390 
Q 3200 3197 3328 2828 
z
" id="DejaVuSans-6d" transform="scale(0.015625)"/>
       <path d="M 581 4863 
L 1159 4863 
L 1159 1991 
L 2875 3500 
L 3609 3500 
L 1753 1863 
L 3688 0 
L 2938 0 
L 1159 1709 
L 1159 0 
L 581 0 
L 581 4863 
z
" id="DejaVuSans-6b" transform="scale(0.015625)"/>
      </defs>
      <use xlink:href="#DejaVuSans-44"/>
      <use x="77.001953" xlink:href="#DejaVuSans-65"/>
      <use x="138.525391" xlink:href="#DejaVuSans-6e"/>
      <use x="201.904297" xlink:href="#DejaVuSans-6d"/>
      <use x="299.316406" xlink:href="#DejaVuSans-61"/>
      <use x="360.595703" xlink:href="#DejaVuSans-72"/>
      <use x="401.708984" xlink:href="#DejaVuSans-6b"/>
     </g>
    </g>
    <g clip-path="url(#p8ad65093e2)">
     <!--   -->
     <g style="fill:#bbbbbb;" transform="translate(82.116309 41.069625)scale(0.065 -0.065)">
      <use xlink:href="#DejaVuSans-20"/>
     </g>
    </g>
    <g clip-path="url(#p8ad65093e2)">
     <!--  p: 0.0 -->
     <g style="fill:#bbbbbb;" transform="translate(72.756817 48.348203)scale(0.065 -0.065)">
      <use xlink:href="#DejaVuSans-20"/>
      <use x="31.787109" xlink:href="#DejaVuSans-70"/>
      <use x="95.263672" xlink:href="#DejaVuSans-3a"/>
      <use x="128.955078" xlink:href="#DejaVuSans-20"/>
      <use x="160.742188" xlink:href="#DejaVuSans-30"/>
      <use x="224.365234" xlink:href="#DejaVuSans-2e"/>
      <use x="256.152344" xlink:href="#DejaVuSans-30"/>
     </g>
    </g>
   </g>
   <g id="text_6">
    <g clip-path="url(#p8ad65093e2)">
     <!-- Wind -->
     <g style="fill:#bbbbbb;" transform="translate(293.331552 201.25935)scale(0.065 -0.065)">
      <use xlink:href="#DejaVuSans-57"/>
      <use x="96.626953" xlink:href="#DejaVuSans-69"/>
      <use x="124.410156" xlink:href="#DejaVuSans-6e"/>
      <use x="187.789062" xlink:href="#DejaVuSans-64"/>
     </g>
    </g>
    <g clip-path="url(#p8ad65093e2)">
     <!--   -->
     <g style="fill:#bbbbbb;" transform="translate(300.464794 208.537929)scale(0.065 -0.065)">
      <use xlink:href="#DejaVuSans-20"/>
     </g>
    </g>
    <g clip-path="url(#p8ad65093e2)">
     <!--  p: 0.0 -->
     <g style="fill:#bbbbbb;" transform="translate(291.105302 215.816507)scale(0.065 -0.065)">
      <use xlink:href="#DejaVuSans-20"/>
      <use x="31.787109" xlink:href="#DejaVuSans-70"/>
      <use x="95.263672" xlink:href="#DejaVuSans-3a"/>
      <use x="128.955078" xlink:href="#DejaVuSans-20"/>
      <use x="160.742188" xlink:href="#DejaVuSans-30"/>
      <use x="224.365234" xlink:href="#DejaVuSans-2e"/>
      <use x="256.152344" xlink:href="#DejaVuSans-30"/>
     </g>
    </g>
   </g>
   <g id="text_7">
    <g clip-path="url(#p8ad65093e2)">
     <!-- P2X -->
     <g style="fill:#bbbbbb;" transform="translate(341.143974 201.25935)scale(0.065 -0.065)">
      <use xlink:href="#DejaVuSans-50"/>
      <use x="60.302734" xlink:href="#DejaVuSans-32"/>
      <use x="123.925781" xlink:href="#DejaVuSans-58"/>
     </g>
    </g>
    <g clip-path="url(#p8ad65093e2)">
     <!--   -->
     <g style="fill:#bbbbbb;" transform="translate(346.364794 208.537929)scale(0.065 -0.065)">
      <use xlink:href="#DejaVuSans-20"/>
     </g>
    </g>
    <g clip-path="url(#p8ad65093e2)">
     <!--  p: 0.0 -->
     <g style="fill:#bbbbbb;" transform="translate(337.005302 215.816507)scale(0.065 -0.065)">
      <use xlink:href="#DejaVuSans-20"/>
      <use x="31.787109" xlink:href="#DejaVuSans-70"/>
      <use x="95.263672" xlink:href="#DejaVuSans-3a"/>
      <use x="128.955078" xlink:href="#DejaVuSans-20"/>
      <use x="160.742188" xlink:href="#DejaVuSans-30"/>
      <use x="224.365234" xlink:href="#DejaVuSans-2e"/>
      <use x="256.152344" xlink:href="#DejaVuSans-30"/>
     </g>
    </g>
   </g>
   <g id="text_8">
    <g clip-path="url(#p8ad65093e2)">
     <!-- Data -->
     <g style="fill:#bbbbbb;" transform="translate(385.537802 201.25935)scale(0.065 -0.065)">
      <use xlink:href="#DejaVuSans-44"/>
      <use x="77.001953" xlink:href="#DejaVuSans-61"/>
      <use x="138.28125" xlink:href="#DejaVuSans-74"/>
      <use x="177.490234" xlink:href="#DejaVuSans-61"/>
     </g>
    </g>
    <g clip-path="url(#p8ad65093e2)">
     <!--   -->
     <g style="fill:#bbbbbb;" transform="translate(392.264794 208.537929)scale(0.065 -0.065)">
      <use xlink:href="#DejaVuSans-20"/>
     </g>
    </g>
    <g clip-path="url(#p8ad65093e2)">
     <!--  p: 0.0 -->
     <g style="fill:#bbbbbb;" transform="translate(382.905302 215.816507)scale(0.065 -0.065)">
      <use xlink:href="#DejaVuSans-20"/>
      <use x="31.787109" xlink:href="#DejaVuSans-70"/>
      <use x="95.263672" xlink:href="#DejaVuSans-3a"/>
      <use x="128.955078" xlink:href="#DejaVuSans-20"/>
      <use x="160.742188" xlink:href="#DejaVuSans-30"/>
      <use x="224.365234" xlink:href="#DejaVuSans-2e"/>
      <use x="256.152344" xlink:href="#DejaVuSans-30"/>
     </g>
    </g>
   </g>
   <g id="text_9">
    <g clip-path="url(#p8ad65093e2)">
     <!-- Island_store -->
     <g style="fill:#bbbbbb;" transform="translate(419.684989 201.078569)scale(0.065 -0.065)">
      <use xlink:href="#DejaVuSans-49"/>
      <use x="29.492188" xlink:href="#DejaVuSans-73"/>
      <use x="81.591797" xlink:href="#DejaVuSans-6c"/>
      <use x="109.375" xlink:href="#DejaVuSans-61"/>
      <use x="170.654297" xlink:href="#DejaVuSans-6e"/>
      <use x="234.033203" xlink:href="#DejaVuSans-64"/>
      <use x="297.509766" xlink:href="#DejaVuSans-5f"/>
      <use x="347.509766" xlink:href="#DejaVuSans-73"/>
      <use x="399.609375" xlink:href="#DejaVuSans-74"/>
      <use x="438.818359" xlink:href="#DejaVuSans-6f"/>
      <use x="500" xlink:href="#DejaVuSans-72"/>
      <use x="538.863281" xlink:href="#DejaVuSans-65"/>
     </g>
    </g>
    <g clip-path="url(#p8ad65093e2)">
     <!--   -->
     <g style="fill:#bbbbbb;" transform="translate(438.164794 208.537929)scale(0.065 -0.065)">
      <use xlink:href="#DejaVuSans-20"/>
     </g>
    </g>
    <g clip-path="url(#p8ad65093e2)">
     <!--  e: 0.0 -->
     <g style="fill:#bbbbbb;" transform="translate(428.868778 215.816507)scale(0.065 -0.065)">
      <use xlink:href="#DejaVuSans-20"/>
      <use x="31.787109" xlink:href="#DejaVuSans-65"/>
      <use x="93.310547" xlink:href="#DejaVuSans-3a"/>
      <use x="127.001953" xlink:href="#DejaVuSans-20"/>
      <use x="158.789062" xlink:href="#DejaVuSans-30"/>
      <use x="222.412109" xlink:href="#DejaVuSans-2e"/>
      <use x="254.199219" xlink:href="#DejaVuSans-30"/>
     </g>
    </g>
   </g>
   <g id="text_10">
    <g clip-path="url(#p8ad65093e2)">
     <!-- Gen  -->
     <g style="fill:#bbbbbb;" transform="translate(75.538614 26.512469)scale(0.065 -0.065)">
      <use xlink:href="#DejaVuSans-47"/>
      <use x="77.490234" xlink:href="#DejaVuSans-65"/>
      <use x="139.013672" xlink:href="#DejaVuSans-6e"/>
      <use x="202.392578" xlink:href="#DejaVuSans-20"/>
     </g>
    </g>
    <g clip-path="url(#p8ad65093e2)">
     <!-- Denmark -->
     <g style="fill:#bbbbbb;" transform="translate(68.211895 33.791047)scale(0.065 -0.065)">
      <use xlink:href="#DejaVuSans-44"/>
      <use x="77.001953" xlink:href="#DejaVuSans-65"/>
      <use x="138.525391" xlink:href="#DejaVuSans-6e"/>
      <use x="201.904297" xlink:href="#DejaVuSans-6d"/>
      <use x="299.316406" xlink:href="#DejaVuSans-61"/>
      <use x="360.595703" xlink:href="#DejaVuSans-72"/>
      <use x="401.708984" xlink:href="#DejaVuSans-6b"/>
     </g>
    </g>
    <g clip-path="url(#p8ad65093e2)">
     <!--   -->
     <g style="fill:#bbbbbb;" transform="translate(82.116309 41.069625)scale(0.065 -0.065)">
      <use xlink:href="#DejaVuSans-20"/>
     </g>
    </g>
    <g clip-path="url(#p8ad65093e2)">
     <!--  p: 0.0 -->
     <g style="fill:#bbbbbb;" transform="translate(72.756817 48.348203)scale(0.065 -0.065)">
      <use xlink:href="#DejaVuSans-20"/>
      <use x="31.787109" xlink:href="#DejaVuSans-70"/>
      <use x="95.263672" xlink:href="#DejaVuSans-3a"/>
      <use x="128.955078" xlink:href="#DejaVuSans-20"/>
      <use x="160.742188" xlink:href="#DejaVuSans-30"/>
      <use x="224.365234" xlink:href="#DejaVuSans-2e"/>
      <use x="256.152344" xlink:href="#DejaVuSans-30"/>
     </g>
    </g>
   </g>
   <g id="patch_12">
    <path clip-path="url(#p8ad65093e2)" d="M 117.897684 276.073304 
C 118.506326 276.073304 119.09012 275.831488 119.520495 275.401114 
C 119.950869 274.970739 120.192684 274.386945 120.192684 273.778304 
C 120.192684 273.169662 119.950869 272.585868 119.520495 272.155493 
C 119.09012 271.725119 118.506326 271.483304 117.897684 271.483304 
C 117.289043 271.483304 116.705249 271.725119 116.274874 272.155493 
C 115.8445 272.585868 115.602684 273.169662 115.602684 273.778304 
C 115.602684 274.386945 115.8445 274.970739 116.274874 275.401114 
C 116.705249 275.831488 117.289043 276.073304 117.897684 276.073304 
z
" style="fill:#f0ffff;stroke:#f0ffff;stroke-linejoin:miter;stroke-width:2;"/>
   </g>
   <g id="patch_13">
    <path clip-path="url(#p8ad65093e2)" d="M 140.847684 276.073304 
C 141.456326 276.073304 142.04012 275.831488 142.470495 275.401114 
C 142.900869 274.970739 143.142684 274.386945 143.142684 273.778304 
C 143.142684 273.169662 142.900869 272.585868 142.470495 272.155493 
C 142.04012 271.725119 141.456326 271.483304 140.847684 271.483304 
C 140.239043 271.483304 139.655249 271.725119 139.224874 272.155493 
C 138.7945 272.585868 138.552684 273.169662 138.552684 273.778304 
C 138.552684 274.386945 138.7945 274.970739 139.224874 275.401114 
C 139.655249 275.831488 140.239043 276.073304 140.847684 276.073304 
z
" style="fill:#ff8c00;stroke:#ff8c00;stroke-linejoin:miter;stroke-width:2;"/>
   </g>
   <g id="patch_14">
    <path clip-path="url(#p8ad65093e2)" d="M 163.797684 276.073304 
C 164.406326 276.073304 164.99012 275.831488 165.420495 275.401114 
C 165.850869 274.970739 166.092684 274.386945 166.092684 273.778304 
C 166.092684 273.169662 165.850869 272.585868 165.420495 272.155493 
C 164.99012 271.725119 164.406326 271.483304 163.797684 271.483304 
C 163.189043 271.483304 162.605249 271.725119 162.174874 272.155493 
C 161.7445 272.585868 161.502684 273.169662 161.502684 273.778304 
C 161.502684 274.386945 161.7445 274.970739 162.174874 275.401114 
C 162.605249 275.831488 163.189043 276.073304 163.797684 276.073304 
z
" style="fill:#ff8c00;stroke:#ff8c00;stroke-linejoin:miter;stroke-width:2;"/>
   </g>
   <g id="patch_15">
    <path clip-path="url(#p8ad65093e2)" d="M 186.747684 276.073304 
C 187.356326 276.073304 187.94012 275.831488 188.370495 275.401114 
C 188.800869 274.970739 189.042684 274.386945 189.042684 273.778304 
C 189.042684 273.169662 188.800869 272.585868 188.370495 272.155493 
C 187.94012 271.725119 187.356326 271.483304 186.747684 271.483304 
C 186.139043 271.483304 185.555249 271.725119 185.124874 272.155493 
C 184.6945 272.585868 184.452684 273.169662 184.452684 273.778304 
C 184.452684 274.386945 184.6945 274.970739 185.124874 275.401114 
C 185.555249 275.831488 186.139043 276.073304 186.747684 276.073304 
z
" style="fill:#ff8c00;stroke:#ff8c00;stroke-linejoin:miter;stroke-width:2;"/>
   </g>
   <g id="patch_16">
    <path clip-path="url(#p8ad65093e2)" d="M 209.697684 276.073304 
C 210.306326 276.073304 210.89012 275.831488 211.320495 275.401114 
C 211.750869 274.970739 211.992684 274.386945 211.992684 273.778304 
C 211.992684 273.169662 211.750869 272.585868 211.320495 272.155493 
C 210.89012 271.725119 210.306326 271.483304 209.697684 271.483304 
C 209.089043 271.483304 208.505249 271.725119 208.074874 272.155493 
C 207.6445 272.585868 207.402684 273.169662 207.402684 273.778304 
C 207.402684 274.386945 207.6445 274.970739 208.074874 275.401114 
C 208.505249 275.831488 209.089043 276.073304 209.697684 276.073304 
z
" style="fill:#ff8c00;stroke:#ff8c00;stroke-linejoin:miter;stroke-width:2;"/>
   </g>
   <g id="patch_17">
    <path clip-path="url(#p8ad65093e2)" d="M 232.647684 276.073304 
C 233.256326 276.073304 233.84012 275.831488 234.270495 275.401114 
C 234.700869 274.970739 234.942684 274.386945 234.942684 273.778304 
C 234.942684 273.169662 234.700869 272.585868 234.270495 272.155493 
C 233.84012 271.725119 233.256326 271.483304 232.647684 271.483304 
C 232.039043 271.483304 231.455249 271.725119 231.024874 272.155493 
C 230.5945 272.585868 230.352684 273.169662 230.352684 273.778304 
C 230.352684 274.386945 230.5945 274.970739 231.024874 275.401114 
C 231.455249 275.831488 232.039043 276.073304 232.647684 276.073304 
z
" style="fill:#ff8c00;stroke:#ff8c00;stroke-linejoin:miter;stroke-width:2;"/>
   </g>
   <g id="patch_18">
    <path clip-path="url(#p8ad65093e2)" d="M 255.597684 276.073304 
C 256.206326 276.073304 256.79012 275.831488 257.220495 275.401114 
C 257.650869 274.970739 257.892684 274.386945 257.892684 273.778304 
C 257.892684 273.169662 257.650869 272.585868 257.220495 272.155493 
C 256.79012 271.725119 256.206326 271.483304 255.597684 271.483304 
C 254.989043 271.483304 254.405249 271.725119 253.974874 272.155493 
C 253.5445 272.585868 253.302684 273.169662 253.302684 273.778304 
C 253.302684 274.386945 253.5445 274.970739 253.974874 275.401114 
C 254.405249 275.831488 254.989043 276.073304 255.597684 276.073304 
z
" style="fill:#ff8c00;stroke:#ff8c00;stroke-linejoin:miter;stroke-width:2;"/>
   </g>
   <g id="patch_19">
    <path clip-path="url(#p8ad65093e2)" d="M 37.2492 108.605 
C 37.857841 108.605 38.441636 108.363184 38.87201 107.93281 
C 39.302384 107.502436 39.5442 106.918641 39.5442 106.31 
C 39.5442 105.701359 39.302384 105.117564 38.87201 104.68719 
C 38.441636 104.256816 37.857841 104.015 37.2492 104.015 
C 36.640559 104.015 36.056764 104.256816 35.62639 104.68719 
C 35.196016 105.117564 34.9542 105.701359 34.9542 106.31 
C 34.9542 106.918641 35.196016 107.502436 35.62639 107.93281 
C 36.056764 108.363184 36.640559 108.605 37.2492 108.605 
z
" style="fill:#f0ffff;stroke:#f0ffff;stroke-linejoin:miter;stroke-width:2;"/>
   </g>
   <g id="patch_20">
    <path clip-path="url(#p8ad65093e2)" d="M 117.897684 276.073304 
C 118.506326 276.073304 119.09012 275.831488 119.520495 275.401114 
C 119.950869 274.970739 120.192684 274.386945 120.192684 273.778304 
C 120.192684 273.169662 119.950869 272.585868 119.520495 272.155493 
C 119.09012 271.725119 118.506326 271.483304 117.897684 271.483304 
C 117.289043 271.483304 116.705249 271.725119 116.274874 272.155493 
C 115.8445 272.585868 115.602684 273.169662 115.602684 273.778304 
C 115.602684 274.386945 115.8445 274.970739 116.274874 275.401114 
C 116.705249 275.831488 117.289043 276.073304 117.897684 276.073304 
z
" style="fill:#f0ffff;stroke:#f0ffff;stroke-linejoin:miter;stroke-width:2;"/>
   </g>
   <g id="patch_21">
    <path clip-path="url(#p8ad65093e2)" d="M 140.847684 276.073304 
C 141.456326 276.073304 142.04012 275.831488 142.470495 275.401114 
C 142.900869 274.970739 143.142684 274.386945 143.142684 273.778304 
C 143.142684 273.169662 142.900869 272.585868 142.470495 272.155493 
C 142.04012 271.725119 141.456326 271.483304 140.847684 271.483304 
C 140.239043 271.483304 139.655249 271.725119 139.224874 272.155493 
C 138.7945 272.585868 138.552684 273.169662 138.552684 273.778304 
C 138.552684 274.386945 138.7945 274.970739 139.224874 275.401114 
C 139.655249 275.831488 140.239043 276.073304 140.847684 276.073304 
z
" style="fill:#ff8c00;stroke:#ff8c00;stroke-linejoin:miter;stroke-width:2;"/>
   </g>
   <g id="patch_22">
    <path clip-path="url(#p8ad65093e2)" d="M 163.797684 276.073304 
C 164.406326 276.073304 164.99012 275.831488 165.420495 275.401114 
C 165.850869 274.970739 166.092684 274.386945 166.092684 273.778304 
C 166.092684 273.169662 165.850869 272.585868 165.420495 272.155493 
C 164.99012 271.725119 164.406326 271.483304 163.797684 271.483304 
C 163.189043 271.483304 162.605249 271.725119 162.174874 272.155493 
C 161.7445 272.585868 161.502684 273.169662 161.502684 273.778304 
C 161.502684 274.386945 161.7445 274.970739 162.174874 275.401114 
C 162.605249 275.831488 163.189043 276.073304 163.797684 276.073304 
z
" style="fill:#ff8c00;stroke:#ff8c00;stroke-linejoin:miter;stroke-width:2;"/>
   </g>
   <g id="patch_23">
    <path clip-path="url(#p8ad65093e2)" d="M 186.747684 276.073304 
C 187.356326 276.073304 187.94012 275.831488 188.370495 275.401114 
C 188.800869 274.970739 189.042684 274.386945 189.042684 273.778304 
C 189.042684 273.169662 188.800869 272.585868 188.370495 272.155493 
C 187.94012 271.725119 187.356326 271.483304 186.747684 271.483304 
C 186.139043 271.483304 185.555249 271.725119 185.124874 272.155493 
C 184.6945 272.585868 184.452684 273.169662 184.452684 273.778304 
C 184.452684 274.386945 184.6945 274.970739 185.124874 275.401114 
C 185.555249 275.831488 186.139043 276.073304 186.747684 276.073304 
z
" style="fill:#ff8c00;stroke:#ff8c00;stroke-linejoin:miter;stroke-width:2;"/>
   </g>
   <g id="patch_24">
    <path clip-path="url(#p8ad65093e2)" d="M 209.697684 276.073304 
C 210.306326 276.073304 210.89012 275.831488 211.320495 275.401114 
C 211.750869 274.970739 211.992684 274.386945 211.992684 273.778304 
C 211.992684 273.169662 211.750869 272.585868 211.320495 272.155493 
C 210.89012 271.725119 210.306326 271.483304 209.697684 271.483304 
C 209.089043 271.483304 208.505249 271.725119 208.074874 272.155493 
C 207.6445 272.585868 207.402684 273.169662 207.402684 273.778304 
C 207.402684 274.386945 207.6445 274.970739 208.074874 275.401114 
C 208.505249 275.831488 209.089043 276.073304 209.697684 276.073304 
z
" style="fill:#ff8c00;stroke:#ff8c00;stroke-linejoin:miter;stroke-width:2;"/>
   </g>
   <g id="patch_25">
    <path clip-path="url(#p8ad65093e2)" d="M 232.647684 276.073304 
C 233.256326 276.073304 233.84012 275.831488 234.270495 275.401114 
C 234.700869 274.970739 234.942684 274.386945 234.942684 273.778304 
C 234.942684 273.169662 234.700869 272.585868 234.270495 272.155493 
C 233.84012 271.725119 233.256326 271.483304 232.647684 271.483304 
C 232.039043 271.483304 231.455249 271.725119 231.024874 272.155493 
C 230.5945 272.585868 230.352684 273.169662 230.352684 273.778304 
C 230.352684 274.386945 230.5945 274.970739 231.024874 275.401114 
C 231.455249 275.831488 232.039043 276.073304 232.647684 276.073304 
z
" style="fill:#ff8c00;stroke:#ff8c00;stroke-linejoin:miter;stroke-width:2;"/>
   </g>
   <g id="patch_26">
    <path clip-path="url(#p8ad65093e2)" d="M 255.597684 276.073304 
C 256.206326 276.073304 256.79012 275.831488 257.220495 275.401114 
C 257.650869 274.970739 257.892684 274.386945 257.892684 273.778304 
C 257.892684 273.169662 257.650869 272.585868 257.220495 272.155493 
C 256.79012 271.725119 256.206326 271.483304 255.597684 271.483304 
C 254.989043 271.483304 254.405249 271.725119 253.974874 272.155493 
C 253.5445 272.585868 253.302684 273.169662 253.302684 273.778304 
C 253.302684 274.386945 253.5445 274.970739 253.974874 275.401114 
C 254.405249 275.831488 254.989043 276.073304 255.597684 276.073304 
z
" style="fill:#ff8c00;stroke:#ff8c00;stroke-linejoin:miter;stroke-width:2;"/>
   </g>
   <g id="patch_27">
    <path clip-path="url(#p8ad65093e2)" d="M 37.2492 108.605 
C 37.857841 108.605 38.441636 108.363184 38.87201 107.93281 
C 39.302384 107.502436 39.5442 106.918641 39.5442 106.31 
C 39.5442 105.701359 39.302384 105.117564 38.87201 104.68719 
C 38.441636 104.256816 37.857841 104.015 37.2492 104.015 
C 36.640559 104.015 36.056764 104.256816 35.62639 104.68719 
C 35.196016 105.117564 34.9542 105.701359 34.9542 106.31 
C 34.9542 106.918641 35.196016 107.502436 35.62639 107.93281 
C 36.056764 108.363184 36.640559 108.605 37.2492 108.605 
z
" style="fill:#f0ffff;stroke:#f0ffff;stroke-linejoin:miter;stroke-width:2;"/>
   </g>
   <g id="text_11">
    <g clip-path="url(#p8ad65093e2)">
     <!-- Energy Island -->
     <g style="fill:#f0ffff;" transform="translate(82.228036 266.239632)scale(0.105 -0.105)">
      <defs>
       <path d="M 628 4666 
L 3578 4666 
L 3578 4134 
L 1259 4134 
L 1259 2753 
L 3481 2753 
L 3481 2222 
L 1259 2222 
L 1259 531 
L 3634 531 
L 3634 0 
L 628 0 
L 628 4666 
z
" id="DejaVuSans-45" transform="scale(0.015625)"/>
       <path d="M 2906 1791 
Q 2906 2416 2648 2759 
Q 2391 3103 1925 3103 
Q 1463 3103 1205 2759 
Q 947 2416 947 1791 
Q 947 1169 1205 825 
Q 1463 481 1925 481 
Q 2391 481 2648 825 
Q 2906 1169 2906 1791 
z
M 3481 434 
Q 3481 -459 3084 -895 
Q 2688 -1331 1869 -1331 
Q 1566 -1331 1297 -1286 
Q 1028 -1241 775 -1147 
L 775 -588 
Q 1028 -725 1275 -790 
Q 1522 -856 1778 -856 
Q 2344 -856 2625 -561 
Q 2906 -266 2906 331 
L 2906 616 
Q 2728 306 2450 153 
Q 2172 0 1784 0 
Q 1141 0 747 490 
Q 353 981 353 1791 
Q 353 2603 747 3093 
Q 1141 3584 1784 3584 
Q 2172 3584 2450 3431 
Q 2728 3278 2906 2969 
L 2906 3500 
L 3481 3500 
L 3481 434 
z
" id="DejaVuSans-67" transform="scale(0.015625)"/>
       <path d="M 2059 -325 
Q 1816 -950 1584 -1140 
Q 1353 -1331 966 -1331 
L 506 -1331 
L 506 -850 
L 844 -850 
Q 1081 -850 1212 -737 
Q 1344 -625 1503 -206 
L 1606 56 
L 191 3500 
L 800 3500 
L 1894 763 
L 2988 3500 
L 3597 3500 
L 2059 -325 
z
" id="DejaVuSans-79" transform="scale(0.015625)"/>
      </defs>
      <use xlink:href="#DejaVuSans-45"/>
      <use x="63.183594" xlink:href="#DejaVuSans-6e"/>
      <use x="126.5625" xlink:href="#DejaVuSans-65"/>
      <use x="188.085938" xlink:href="#DejaVuSans-72"/>
      <use x="227.449219" xlink:href="#DejaVuSans-67"/>
      <use x="290.925781" xlink:href="#DejaVuSans-79"/>
      <use x="350.105469" xlink:href="#DejaVuSans-20"/>
      <use x="381.892578" xlink:href="#DejaVuSans-49"/>
      <use x="411.384766" xlink:href="#DejaVuSans-73"/>
      <use x="463.484375" xlink:href="#DejaVuSans-6c"/>
      <use x="491.267578" xlink:href="#DejaVuSans-61"/>
      <use x="552.546875" xlink:href="#DejaVuSans-6e"/>
      <use x="615.925781" xlink:href="#DejaVuSans-64"/>
     </g>
    </g>
   </g>
   <g id="text_12">
    <g clip-path="url(#p8ad65093e2)">
     <!-- Denmark -->
     <g style="fill:#f0ffff;" transform="translate(13.119708 98.771328)scale(0.105 -0.105)">
      <use xlink:href="#DejaVuSans-44"/>
      <use x="77.001953" xlink:href="#DejaVuSans-65"/>
      <use x="138.525391" xlink:href="#DejaVuSans-6e"/>
      <use x="201.904297" xlink:href="#DejaVuSans-6d"/>
      <use x="299.316406" xlink:href="#DejaVuSans-61"/>
      <use x="360.595703" xlink:href="#DejaVuSans-72"/>
      <use x="401.708984" xlink:href="#DejaVuSans-6b"/>
     </g>
    </g>
   </g>
   <g id="text_13">
    <g clip-path="url(#p8ad65093e2)">
     <!-- Energy Island -->
     <g style="fill:#f0ffff;" transform="translate(82.228036 266.239632)scale(0.105 -0.105)">
      <use xlink:href="#DejaVuSans-45"/>
      <use x="63.183594" xlink:href="#DejaVuSans-6e"/>
      <use x="126.5625" xlink:href="#DejaVuSans-65"/>
      <use x="188.085938" xlink:href="#DejaVuSans-72"/>
      <use x="227.449219" xlink:href="#DejaVuSans-67"/>
      <use x="290.925781" xlink:href="#DejaVuSans-79"/>
      <use x="350.105469" xlink:href="#DejaVuSans-20"/>
      <use x="381.892578" xlink:href="#DejaVuSans-49"/>
      <use x="411.384766" xlink:href="#DejaVuSans-73"/>
      <use x="463.484375" xlink:href="#DejaVuSans-6c"/>
      <use x="491.267578" xlink:href="#DejaVuSans-61"/>
      <use x="552.546875" xlink:href="#DejaVuSans-6e"/>
      <use x="615.925781" xlink:href="#DejaVuSans-64"/>
     </g>
    </g>
   </g>
   <g id="text_14">
    <g clip-path="url(#p8ad65093e2)">
     <!-- Denmark -->
     <g style="fill:#f0ffff;" transform="translate(13.119708 98.771328)scale(0.105 -0.105)">
      <use xlink:href="#DejaVuSans-44"/>
      <use x="77.001953" xlink:href="#DejaVuSans-65"/>
      <use x="138.525391" xlink:href="#DejaVuSans-6e"/>
      <use x="201.904297" xlink:href="#DejaVuSans-6d"/>
      <use x="299.316406" xlink:href="#DejaVuSans-61"/>
      <use x="360.595703" xlink:href="#DejaVuSans-72"/>
      <use x="401.708984" xlink:href="#DejaVuSans-6b"/>
     </g>
    </g>
   </g>
  </g>
 </g>
 <defs>
  <clipPath id="p8ad65093e2">
   <rect height="274.228304" width="466.412484" x="7.2" y="7.2"/>
  </clipPath>
 </defs>
</svg>
